<svg xmlns="http://www.w3.org/2000/svg" xmlns:xlink="http://www.w3.org/1999/xlink" version="1.1" width="256" height="256" viewBox="0 0 256 256" xml:space="preserve">

<defs>
</defs>
<g style="stroke: none; stroke-width: 0; stroke-dasharray: none; stroke-linecap: butt; stroke-linejoin: miter; stroke-miterlimit: 10; fill: none; fill-rule: nonzero; opacity: 1;" transform="translate(1.4065934065934016 1.4065934065934016) scale(2.81 2.81)" >
	<path d="M 55.229 78.816 v 6.086 c 0 0.606 -0.493 1.098 -1.098 1.098 H 18.004 c -0.606 0 -1.098 -0.493 -1.098 -1.098 V 4.731 C 16.906 4.328 17.234 4 17.637 4 h 5.689 c 0.379 2.345 2.052 4.126 4.044 4.126 h 17.396 c 1.992 0 3.664 -1.781 4.044 -4.126 h 5.321 c 0.606 0 1.098 0.493 1.098 1.098 v 18.809 c 1.362 0.081 2.698 0.258 4 0.531 V 5.098 C 59.229 2.283 56.946 0 54.131 0 H 17.637 c -2.613 0 -4.731 2.118 -4.731 4.731 v 80.171 c 0 2.816 2.283 5.098 5.098 5.098 h 36.126 c 2.816 0 5.098 -2.283 5.098 -5.098 v -6.617 C 57.927 78.557 56.591 78.735 55.229 78.816 z M 41.948 4.25 c 0.414 0 0.75 0.336 0.75 0.75 c 0 0.414 -0.336 0.75 -0.75 0.75 c -0.414 0 -0.75 -0.336 -0.75 -0.75 C 41.198 4.586 41.534 4.25 41.948 4.25 z M 29.437 4.25 h 9.466 c 0.414 0 0.75 0.336 0.75 0.75 s -0.336 0.75 -0.75 0.75 h -9.466 c -0.414 0 -0.75 -0.336 -0.75 -0.75 S 29.023 4.25 29.437 4.25 z" style="stroke: none; stroke-width: 1; stroke-dasharray: none; stroke-linecap: butt; stroke-linejoin: miter; stroke-miterlimit: 10; fill: rgb(0,0,0); fill-rule: nonzero; opacity: 1;" transform=" matrix(1 0 0 1 0 0) " stroke-linecap="round" />
	<path d="M 51.665 27.93 c -11.492 0.913 -20.756 10.299 -21.532 21.802 c -0.439 6.5 1.769 12.48 5.65 16.977 c 0.305 0.354 0.402 0.84 0.235 1.277 l -3.652 9.607 c -0.096 0.253 0.174 0.488 0.412 0.359 l 9.669 -5.286 c 0.356 -0.194 0.779 -0.2 1.146 -0.027 c 3.443 1.621 7.34 2.437 11.453 2.187 C 66.646 74.12 76.142 64.79 77.024 53.201 C 78.123 38.742 66.133 26.781 51.665 27.93 z M 43.195 56.895 c -2.602 0.399 -4.811 -1.811 -4.412 -4.412 c 0.248 -1.621 1.574 -2.946 3.195 -3.194 c 2.602 -0.398 4.81 1.81 4.412 4.412 C 46.141 55.322 44.816 56.647 43.195 56.895 z M 54.195 56.895 c -2.602 0.399 -4.811 -1.811 -4.412 -4.412 c 0.248 -1.621 1.574 -2.946 3.195 -3.194 c 2.602 -0.398 4.81 1.81 4.412 4.412 C 57.141 55.322 55.816 56.647 54.195 56.895 z M 65.195 56.895 c -2.602 0.399 -4.811 -1.811 -4.412 -4.412 c 0.248 -1.621 1.574 -2.946 3.195 -3.194 c 2.602 -0.398 4.81 1.81 4.412 4.412 C 68.141 55.322 66.816 56.647 65.195 56.895 z" style="stroke: none; stroke-width: 1; stroke-dasharray: none; stroke-linecap: butt; stroke-linejoin: miter; stroke-miterlimit: 10; fill: rgb(0,0,0); fill-rule: nonzero; opacity: 1;" transform=" matrix(1 0 0 1 0 0) " stroke-linecap="round" />
</g>
</svg>